<svg width="820" height="287" viewBox="0 0 820 287" fill="none" xmlns="http://www.w3.org/2000/svg">
<path d="M22.1584 264.446V265.446H23.1584H47.0144H48.0144V264.446V186.6V185.6H47.0144H23.1584H22.1584V186.6V264.446ZM114.223 264.446V265.446H115.223H138.94H139.94V264.446V218.966C139.94 208.315 136.884 199.751 131.426 193.839C125.96 187.92 118.18 184.763 108.945 184.763C99.3946 184.763 91.4833 188.497 86.3683 194.112V186.6V185.6H85.3683H61.5123H60.5123V186.6V264.446V265.446H61.5123H85.3683H86.3683V264.446V222.175C86.3683 217.053 87.7816 213.207 90.1633 210.65C92.5374 208.1 95.9832 206.713 100.296 206.713C104.608 206.713 108.054 208.1 110.428 210.65C112.81 213.207 114.223 217.053 114.223 222.175V264.446ZM343.407 186.6V185.6H342.407H318.551H317.551V186.6V228.871C317.551 233.993 316.138 237.838 313.741 240.395C311.351 242.944 307.871 244.333 303.484 244.333C299.245 244.333 295.796 242.948 293.402 240.395C291.002 237.834 289.557 233.987 289.557 228.871V186.6V185.6H288.557H264.841H263.841V186.6V232.08C263.841 242.666 266.934 251.23 272.425 257.156C277.923 263.09 285.737 266.283 294.974 266.283C304.531 266.283 312.44 262.436 317.551 256.702V264.446V265.446H318.551H342.407H343.407V264.446V186.6ZM405.023 212.014H406.023V211.014V185.763V184.763H405.023C395.288 184.763 387.207 189.427 381.609 196.49V186.6V185.6H380.609H356.753H355.753V186.6V264.446V265.446H356.753H380.609H381.609V264.446V228.313C381.609 221.763 383.212 217.78 385.955 215.397C388.731 212.986 392.892 212.014 398.466 212.014H405.023ZM439.409 264.446V265.446H440.409H464.265H465.265V264.446V161.21V160.21H464.265H440.409H439.409V161.21V264.446ZM477.763 264.446V265.446H478.763H502.619H503.619V264.446V186.6V185.6H502.619H478.763H477.763V186.6V264.446ZM518.488 264.446V265.446H519.488H543.344H544.344V264.446V207.411H556.179H557.179V206.411V186.6V185.6H556.179H544.346C544.385 181.748 545.181 179.466 546.746 178.138C548.385 176.748 551.14 176.162 555.7 176.438L556.76 176.502V175.44V155.211V154.263L555.813 154.212C543.829 153.578 534.476 155.786 528.105 160.901C521.701 166.042 518.488 173.974 518.488 184.368V185.6H510.839H509.839V186.6V206.411V207.411H510.839H518.488V264.446ZM637.137 238.878L637.444 237.637H636.166H610.776H610.139L609.87 238.214C608.954 240.176 607.632 241.904 605.788 243.143C603.95 244.38 601.534 245.171 598.36 245.171C594.731 245.171 591.502 244.052 589.085 241.795C586.851 239.709 585.231 236.576 584.681 232.243H637.562H638.451L638.555 231.36C638.838 228.951 638.98 226.54 638.98 224.268C638.98 212.177 634.885 202.212 627.817 195.269C620.751 188.329 610.79 184.484 599.197 184.484C587.393 184.484 577.29 188.399 570.135 195.536C562.979 202.674 558.855 212.953 558.855 225.523C558.855 238.099 563.052 248.377 570.242 255.512C577.429 262.646 587.53 266.562 599.197 266.562C619.025 266.562 633.254 254.552 637.137 238.878ZM35.1561 179.509C44.0162 179.509 50.2465 173.402 50.2465 165.674C50.2465 157.814 44.0235 151.7 35.1561 151.7C26.1561 151.7 19.9263 157.807 19.9263 165.674C19.9263 173.408 26.1633 179.509 35.1561 179.509ZM256.672 225.523C256.672 212.928 252.183 202.649 244.714 195.52C237.251 188.398 226.879 184.484 215.215 184.484C203.619 184.484 193.248 188.399 185.769 195.52C178.283 202.647 173.757 212.926 173.757 225.523C173.757 238.113 178.173 248.393 185.573 255.523C192.967 262.648 203.271 266.562 214.936 266.562C226.599 266.562 237.039 262.649 244.571 255.529C252.11 248.403 256.672 238.123 256.672 225.523ZM200.032 225.523C200.032 219.086 201.858 214.502 204.612 211.538C207.364 208.576 211.131 207.132 215.215 207.132C219.153 207.132 222.925 208.572 225.717 211.542C228.507 214.511 230.398 219.095 230.398 225.523C230.398 231.874 228.476 236.458 225.633 239.448C222.787 242.44 218.943 243.915 214.936 243.915C210.861 243.915 207.167 242.442 204.483 239.467C201.793 236.486 200.032 231.899 200.032 225.523ZM490.76 179.509C499.621 179.509 505.851 173.402 505.851 165.674C505.851 157.814 499.628 151.7 490.76 151.7C481.76 151.7 475.531 157.807 475.531 165.674C475.531 173.408 481.768 179.509 490.76 179.509ZM598.918 205.597C602.696 205.597 606.115 206.757 608.573 208.862C610.805 210.773 612.294 213.502 612.532 216.99H584.919C585.706 213.434 587.347 210.701 589.558 208.81C592.004 206.717 595.218 205.597 598.918 205.597Z" stroke="white" stroke-width="2"/>
<mask id="path-2-outside-1_652_1520" maskUnits="userSpaceOnUse" x="16.6011" y="13.5009" width="794" height="146" fill="black">
<rect fill="white" x="16.6011" y="13.5009" width="794" height="146"/>
<path d="M28.0877 91.6726C28.0877 111.901 39.3878 118.737 55.5708 118.737H67.7081V98.5085H59.1981C53.8967 98.5085 51.9436 96.5554 51.9436 91.9516V60.7017H67.5686V40.8915H51.9436V21.9183H28.0877V40.8915H18.6011V60.7017H28.0877V91.6726Z"/>
<path d="M112.525 58.8881C120.477 58.8881 127.174 63.7709 127.174 72.2809H97.3187C98.7138 63.6314 104.713 58.8881 112.525 58.8881ZM149.774 92.9282H124.383C122.43 97.1134 118.664 100.462 111.967 100.462C104.294 100.462 98.0163 95.7183 97.1792 85.5342H151.169C151.448 83.1626 151.588 80.7909 151.588 78.5588C151.588 54.8423 135.544 39.7754 112.804 39.7754C89.6458 39.7754 73.4628 55.1214 73.4628 79.8144C73.4628 104.507 89.9248 119.853 112.804 119.853C132.196 119.853 146.007 108.135 149.774 92.9282Z"/>
<path d="M156.639 79.8144C156.639 104.507 172.822 119.853 195.702 119.853C215.233 119.853 229.044 108.553 233.09 90.5565H207.699C205.607 96.2764 201.84 99.4851 195.283 99.4851C186.773 99.4851 180.914 92.7887 180.914 79.8144C180.914 66.8401 186.773 60.1437 195.283 60.1437C201.84 60.1437 205.746 63.6314 207.699 69.0722H233.09C229.044 50.5176 215.233 39.7754 195.702 39.7754C172.822 39.7754 156.639 55.2609 156.639 79.8144Z"/>
<path d="M243.06 118.737H266.916V76.4662C266.916 65.8635 272.776 60.0042 281.844 60.0042C290.912 60.0042 296.771 65.8635 296.771 76.4662V118.737H320.488V73.2575C320.488 52.3312 308.629 40.0544 290.912 40.0544C280.17 40.0544 271.66 44.6582 266.916 51.3546V15.5009H243.06V118.737Z"/>
<path d="M387.986 118.737H411.702V73.2575C411.702 52.3312 399.705 40.0544 381.708 40.0544C371.245 40.0544 362.874 44.6582 358.131 51.2151V40.8915H334.275V118.737H358.131V76.4662C358.131 65.8635 363.99 60.0042 373.058 60.0042C382.126 60.0042 387.986 65.8635 387.986 76.4662V118.737Z"/>
<path d="M501.661 79.8144C501.661 55.1214 484.083 39.7754 461.204 39.7754C438.464 39.7754 420.746 55.1214 420.746 79.8144C420.746 104.507 438.045 119.853 460.925 119.853C483.804 119.853 501.661 104.507 501.661 79.8144ZM445.021 79.8144C445.021 66.5611 452.554 60.4227 461.204 60.4227C469.574 60.4227 477.387 66.5611 477.387 79.8144C477.387 92.9282 469.435 99.2061 460.925 99.2061C452.275 99.2061 445.021 92.9282 445.021 79.8144Z"/>
<path d="M511.527 118.737H535.383V15.5009H511.527V118.737Z"/>
<path d="M626.053 79.8144C626.053 55.1214 608.475 39.7754 585.595 39.7754C562.855 39.7754 545.138 55.1214 545.138 79.8144C545.138 104.507 562.437 119.853 585.316 119.853C608.196 119.853 626.053 104.507 626.053 79.8144ZM569.412 79.8144C569.412 66.5611 576.946 60.4227 585.595 60.4227C593.966 60.4227 601.778 66.5611 601.778 79.8144C601.778 92.9282 593.826 99.2061 585.316 99.2061C576.667 99.2061 569.412 92.9282 569.412 79.8144Z"/>
<path d="M631.175 79.6749C631.175 104.228 646.382 119.853 665.494 119.853C676.934 119.853 685.165 114.412 689.49 107.577V118.598C689.49 131.712 682.375 136.455 673.307 136.455C665.076 136.455 659.217 132.688 657.682 126.829H634.105C636.198 145.383 651.265 157.102 674.423 157.102C701.348 157.102 713.346 139.385 713.346 118.598V40.8915H689.49V51.9127C685.305 44.9372 676.934 39.7754 665.494 39.7754C646.382 39.7754 631.175 55.1214 631.175 79.6749ZM689.49 79.8144C689.49 92.2306 681.538 99.0665 672.47 99.0665C663.541 99.0665 655.45 92.0911 655.45 79.6749C655.45 67.2586 663.541 60.5622 672.47 60.5622C681.538 60.5622 689.49 67.3981 689.49 79.8144Z"/>
<path d="M763.668 89.58L745.671 40.8915H719.025L750.694 116.087L732.837 155.707H758.506L807.334 40.8915H781.525L763.668 89.58Z"/>
</mask>
<path d="M28.0877 91.6726C28.0877 111.901 39.3878 118.737 55.5708 118.737H67.7081V98.5085H59.1981C53.8967 98.5085 51.9436 96.5554 51.9436 91.9516V60.7017H67.5686V40.8915H51.9436V21.9183H28.0877V40.8915H18.6011V60.7017H28.0877V91.6726Z" stroke="white" stroke-width="4" mask="url(#path-2-outside-1_652_1520)"/>
<path d="M112.525 58.8881C120.477 58.8881 127.174 63.7709 127.174 72.2809H97.3187C98.7138 63.6314 104.713 58.8881 112.525 58.8881ZM149.774 92.9282H124.383C122.43 97.1134 118.664 100.462 111.967 100.462C104.294 100.462 98.0163 95.7183 97.1792 85.5342H151.169C151.448 83.1626 151.588 80.7909 151.588 78.5588C151.588 54.8423 135.544 39.7754 112.804 39.7754C89.6458 39.7754 73.4628 55.1214 73.4628 79.8144C73.4628 104.507 89.9248 119.853 112.804 119.853C132.196 119.853 146.007 108.135 149.774 92.9282Z" stroke="white" stroke-width="4" mask="url(#path-2-outside-1_652_1520)"/>
<path d="M156.639 79.8144C156.639 104.507 172.822 119.853 195.702 119.853C215.233 119.853 229.044 108.553 233.09 90.5565H207.699C205.607 96.2764 201.84 99.4851 195.283 99.4851C186.773 99.4851 180.914 92.7887 180.914 79.8144C180.914 66.8401 186.773 60.1437 195.283 60.1437C201.84 60.1437 205.746 63.6314 207.699 69.0722H233.09C229.044 50.5176 215.233 39.7754 195.702 39.7754C172.822 39.7754 156.639 55.2609 156.639 79.8144Z" stroke="white" stroke-width="4" mask="url(#path-2-outside-1_652_1520)"/>
<path d="M243.06 118.737H266.916V76.4662C266.916 65.8635 272.776 60.0042 281.844 60.0042C290.912 60.0042 296.771 65.8635 296.771 76.4662V118.737H320.488V73.2575C320.488 52.3312 308.629 40.0544 290.912 40.0544C280.17 40.0544 271.66 44.6582 266.916 51.3546V15.5009H243.06V118.737Z" stroke="white" stroke-width="4" mask="url(#path-2-outside-1_652_1520)"/>
<path d="M387.986 118.737H411.702V73.2575C411.702 52.3312 399.705 40.0544 381.708 40.0544C371.245 40.0544 362.874 44.6582 358.131 51.2151V40.8915H334.275V118.737H358.131V76.4662C358.131 65.8635 363.99 60.0042 373.058 60.0042C382.126 60.0042 387.986 65.8635 387.986 76.4662V118.737Z" stroke="white" stroke-width="4" mask="url(#path-2-outside-1_652_1520)"/>
<path d="M501.661 79.8144C501.661 55.1214 484.083 39.7754 461.204 39.7754C438.464 39.7754 420.746 55.1214 420.746 79.8144C420.746 104.507 438.045 119.853 460.925 119.853C483.804 119.853 501.661 104.507 501.661 79.8144ZM445.021 79.8144C445.021 66.5611 452.554 60.4227 461.204 60.4227C469.574 60.4227 477.387 66.5611 477.387 79.8144C477.387 92.9282 469.435 99.2061 460.925 99.2061C452.275 99.2061 445.021 92.9282 445.021 79.8144Z" stroke="white" stroke-width="4" mask="url(#path-2-outside-1_652_1520)"/>
<path d="M511.527 118.737H535.383V15.5009H511.527V118.737Z" stroke="white" stroke-width="4" mask="url(#path-2-outside-1_652_1520)"/>
<path d="M626.053 79.8144C626.053 55.1214 608.475 39.7754 585.595 39.7754C562.855 39.7754 545.138 55.1214 545.138 79.8144C545.138 104.507 562.437 119.853 585.316 119.853C608.196 119.853 626.053 104.507 626.053 79.8144ZM569.412 79.8144C569.412 66.5611 576.946 60.4227 585.595 60.4227C593.966 60.4227 601.778 66.5611 601.778 79.8144C601.778 92.9282 593.826 99.2061 585.316 99.2061C576.667 99.2061 569.412 92.9282 569.412 79.8144Z" stroke="white" stroke-width="4" mask="url(#path-2-outside-1_652_1520)"/>
<path d="M631.175 79.6749C631.175 104.228 646.382 119.853 665.494 119.853C676.934 119.853 685.165 114.412 689.49 107.577V118.598C689.49 131.712 682.375 136.455 673.307 136.455C665.076 136.455 659.217 132.688 657.682 126.829H634.105C636.198 145.383 651.265 157.102 674.423 157.102C701.348 157.102 713.346 139.385 713.346 118.598V40.8915H689.49V51.9127C685.305 44.9372 676.934 39.7754 665.494 39.7754C646.382 39.7754 631.175 55.1214 631.175 79.6749ZM689.49 79.8144C689.49 92.2306 681.538 99.0665 672.47 99.0665C663.541 99.0665 655.45 92.0911 655.45 79.6749C655.45 67.2586 663.541 60.5622 672.47 60.5622C681.538 60.5622 689.49 67.3981 689.49 79.8144Z" stroke="white" stroke-width="4" mask="url(#path-2-outside-1_652_1520)"/>
<path d="M763.668 89.58L745.671 40.8915H719.025L750.694 116.087L732.837 155.707H758.506L807.334 40.8915H781.525L763.668 89.58Z" stroke="white" stroke-width="4" mask="url(#path-2-outside-1_652_1520)"/>
</svg>
