<svg width="21" height="27" viewBox="0 0 21 27" fill="none" xmlns="http://www.w3.org/2000/svg">
<path fill-rule="evenodd" clip-rule="evenodd" d="M3.07538 3.07538C5.04451 1.10625 7.71523 0 10.5 0C13.2848 0 15.9555 1.10625 17.9246 3.07538C19.8938 5.04451 21 7.71523 21 10.5C21 17.5875 11.8125 25.5938 11.3531 25.935C11.1154 26.1383 10.8128 26.2501 10.5 26.2501C10.1872 26.2501 9.88461 26.1383 9.64688 25.935L9.6447 25.9331C9.22036 25.5654 0 17.5749 0 10.5C0 7.71523 1.10625 5.04451 3.07538 3.07538ZM10.5002 14.8234C12.888 14.8234 14.8238 12.8877 14.8238 10.4999C14.8238 8.11209 12.888 6.17638 10.5002 6.17638C8.11241 6.17638 6.1767 8.11209 6.1767 10.4999C6.1767 12.8877 8.11241 14.8234 10.5002 14.8234Z" fill="white"/>
</svg>
