<svg width="295" height="173" viewBox="0 0 295 173" fill="none" xmlns="http://www.w3.org/2000/svg">
<g clip-path="url(#clip0_765_1886)">
<path d="M183.739 68.0953C182.587 68.1099 182.033 67.3428 181.88 66.0495C181.749 64.7563 176.163 13.5314 175.317 5.77207C175.2 4.64689 174.923 2.57189 174.923 1.81933C174.923 0.621088 175.696 4.68973e-05 176.6 4.68973e-05C179.255 -0.0145658 193.686 3.38289 209.008 14.1305C204.588 15.3945 196.596 19.9756 196.64 29.5031C196.676 37.9201 202.7 42.5742 202.714 51.0204C202.78 64.7782 186.999 68.0953 183.739 68.0953Z" fill="#EF7B10"/>
<path d="M232.227 94.2741C232.467 94.917 232.701 95.4504 232.919 95.823C233.262 96.4295 233.736 96.6925 234.29 96.6925C234.648 96.6925 235.1 96.561 235.588 96.3491C236.741 95.8157 283.412 74.0355 290.442 70.7914C291.47 70.2873 293.403 69.4325 294.03 69.0598C294.708 68.6872 295.007 68.1392 295.007 67.5693C295.007 67.2625 294.927 66.941 294.737 66.6487C293.862 65.224 289.355 60.4164 281.8 55.1851C275.799 58.4802 266.443 63.5947 252.521 63.6458C249.108 63.6604 248.343 63.4193 246.009 63.4339C239.205 63.4632 237.514 66.3784 237.266 72.3404C237.229 73.4729 237.215 74.978 237.134 76.6511C236.916 81.9775 236.288 89.3496 232.227 94.2741V94.2741Z" fill="#EF7B10"/>
<path d="M212.172 16.4175C207.17 17.3673 199.79 21.8826 199.826 29.905C199.826 37.1822 205.777 41.5952 205.799 51.1154C205.813 58.2902 201.861 63.1197 197.609 65.7866C199.33 65.655 201.226 65.5454 203.297 65.5454C207.658 65.5235 210.284 65.94 210.451 65.9765L232.795 38.4973C226.575 29.1963 219.333 21.963 212.172 16.4175V16.4175Z" fill="#DD052B"/>
<path d="M230.943 90.6209C233.75 86.2225 234.108 79.2449 234.356 72.1212C234.611 65.4651 236.011 60.4748 244.864 60.4383C246.84 60.4383 248.7 60.7087 252.091 60.694C265.086 60.6283 273.56 56.1568 278.869 53.2123C268.076 46.3224 252.332 39.2937 232.795 38.4973C231.512 42.092 221.63 69.6663 220.872 71.8947C221.003 72.0262 222.717 73.9697 224.883 77.7471C228.077 82.9711 229.791 87.4061 230.936 90.6209H230.943Z" fill="#DD052B"/>
<path d="M137.586 130.09C137.586 155.764 154.504 173 179.707 173C196.501 173 207.09 166.322 209.329 164.751C209.139 164.378 202.612 151.49 202.408 151.074C194.81 155.786 187.612 156.787 182.923 156.787C168.36 156.787 157.786 145.565 157.786 130.082C157.786 112.423 170.424 103.18 182.908 103.18C186.817 103.18 189.501 103.845 191.842 104.422C193.774 104.897 195.459 105.299 197.471 105.299C201.869 105.299 204.494 103.422 207.083 98.3947C207.083 98.3947 208.723 95.1726 209.008 94.6539C205.267 92.2501 195.254 86.9895 179.707 86.9895C154.504 86.9895 137.586 104.32 137.586 130.082V130.09Z" fill="#DD052B"/>
<path d="M36.7246 120.928C29.8041 117.669 24.1014 115.053 24.1014 109.734C24.1014 105.679 27.3538 102.706 33.742 102.706C36.112 102.706 38.0372 102.983 40.0353 103.348C41.0709 103.538 42.1793 103.685 43.0982 103.685C48.7133 103.685 51.8636 100.331 53.9712 93.9964L54.8317 91.4099C53.9493 91.0446 44.8046 87.0115 32.8742 87.0115C13.892 87.0115 3.87956 99.1985 3.89415 111.86C3.89415 118.246 5.87769 122.856 9.00613 126.495C13.017 131.186 18.7488 134.24 24.1306 136.87C31.9262 140.713 38.9852 143.577 38.9852 149.254C38.9852 154.318 33.7785 157.189 26.7923 157.189C17.2684 157.189 8.89674 151.717 7.84664 151.059L0 165.796C1.40014 166.578 11.5001 173 28.1268 173C45.8328 172.985 59.2363 162.822 59.2363 147.157C59.2363 131.493 46.8027 125.808 36.7246 120.928V120.928Z" fill="#DD052B"/>
<path d="M105.995 128.197L138.133 88.7285H115.227L89.6309 122.791H89.2371V88.7285H70.3789V172.328H71.4946C79.6621 172.328 89.3611 168.543 89.3611 154.902V135.716H89.7476L115.869 171.29H139.868L106.002 128.205L105.995 128.197Z" fill="#DD052B"/>
</g>
<defs>
<clipPath id="clip0_765_1886">
<rect width="295" height="173" fill="white"/>
</clipPath>
</defs>
</svg>
