<svg width="130" height="63" viewBox="0 0 130 63" fill="none" xmlns="http://www.w3.org/2000/svg">
<path d="M29.0215 25.9683C28.5899 25.9705 28.3751 25.6842 28.317 25.1854C28.2611 24.6911 26.1272 5.15564 25.8096 2.20094C25.7626 1.76925 25.6553 0.977455 25.6553 0.693393C25.653 0.23934 25.9483 1.15615e-05 26.2972 1.15615e-05C27.3082 -0.00446187 32.8217 1.28836 38.673 5.38825C36.9865 5.86467 33.9378 7.61826 33.9513 11.2484C33.9624 14.4626 36.264 16.2296 36.2752 19.4549C36.2931 24.6978 30.2674 25.966 29.0193 25.9683H29.0215Z" fill="#ED7013"/>
<path d="M47.5435 35.9485C47.6352 36.1923 47.7224 36.3958 47.8096 36.539C47.9438 36.7671 48.1183 36.87 48.3353 36.87C48.4717 36.87 48.6394 36.823 48.8229 36.7403C49.2747 36.5323 67.1013 28.234 69.7898 26.9927C70.179 26.8048 70.9194 26.476 71.1609 26.3328C71.4137 26.1897 71.53 25.9794 71.53 25.7647C71.53 25.6439 71.4942 25.5254 71.4271 25.4158C71.0916 24.8723 69.3671 23.0404 66.4817 21.0408C64.1913 22.3023 60.617 24.2505 55.2981 24.2728C53.9941 24.2728 53.6989 24.1856 52.8087 24.1901C50.2119 24.199 49.5632 25.3107 49.4693 27.5854C49.4536 28.0149 49.4469 28.5942 49.4201 29.2294C49.3373 31.2626 49.098 34.0696 47.5435 35.9485V35.9485Z" fill="#ED7013"/>
<path d="M39.8827 6.26056C37.9793 6.62067 35.1588 8.34741 35.1677 11.4028C35.1745 14.1763 37.4425 15.8583 37.4492 19.493C37.4604 22.2285 35.9528 24.0693 34.3223 25.0892C34.9799 25.0311 35.7023 24.993 36.4964 24.9908C38.1627 24.9863 39.1648 25.1451 39.2274 25.1563L47.7649 14.6795C45.394 11.1299 42.6249 8.37649 39.8805 6.26056H39.8827Z" fill="#DD052B"/>
<path d="M47.0538 34.5527C48.1297 32.8797 48.2639 30.2135 48.3556 27.4982C48.4562 24.9662 48.9841 23.0583 52.375 23.0471C53.1265 23.0449 53.8422 23.1477 55.1373 23.1433C60.1028 23.1209 63.3438 21.4121 65.3591 20.2892C61.2391 17.6611 55.2268 14.9815 47.7651 14.6796C47.2797 16.0507 43.4974 26.5632 43.2134 27.4109C43.2559 27.4624 43.9179 28.2027 44.7455 29.6521C45.9645 31.6406 46.6199 33.3248 47.0538 34.5527V34.5527Z" fill="#DD052B"/>
<path d="M10.526 41.075C8.53754 40.1445 6.9025 39.393 6.9025 37.8743C6.9025 36.7134 7.83297 35.8679 9.66931 35.8679C10.3448 35.8679 10.8973 35.9485 11.4676 36.0514C11.7673 36.1028 12.085 36.1475 12.3489 36.1475C13.9526 36.1475 14.8585 35.1902 15.4602 33.3762L15.7084 32.6337C15.4512 32.5285 12.832 31.3789 9.41433 31.3789C3.97688 31.3789 1.10717 34.8659 1.10941 38.4827C1.10941 40.3078 1.67977 41.6297 2.57446 42.672C3.72636 44.0118 5.37035 44.8886 6.90697 45.6379C9.14592 46.7361 11.1679 47.5481 11.1679 49.1786C11.1679 50.6235 9.67602 51.4467 7.67864 51.4467C4.94314 51.4467 2.55209 49.8832 2.24566 49.6931L0 53.9026C0.400372 54.1285 3.29244 55.9648 8.0544 55.9648C13.1273 55.9603 16.9699 53.0526 16.9699 48.5769C16.9699 44.1013 13.4091 42.4707 10.5237 41.075H10.526Z" fill="#DD052B"/>
<path d="M30.3703 43.1551L39.5743 31.8687H33.0163L25.6754 41.6073H25.5658V31.8687H20.1597V55.7747H20.4818C22.8191 55.7747 25.6016 54.6944 25.6016 50.7891V45.3002H25.7112L33.1952 55.4772H40.0731L30.3703 43.1551V43.1551Z" fill="#DD052B"/>
<path d="M79.4122 51.2319V42.2247H76.0214V51.677C75.8424 51.8493 74.6637 52.9072 73.2188 52.9072C71.6821 52.9072 70.6532 51.9633 70.6532 50.0666V42.2269H67.2803V50.8427C67.2803 54.9494 70.4273 55.8575 72.1921 55.8575C74.3013 55.8575 75.8133 54.5244 76.2584 54.0815C76.3994 54.6206 77.0502 55.56 78.5287 55.56C79.0543 55.56 79.7298 55.4079 79.7947 55.3967C79.6896 54.8822 79.4122 53.6744 79.4122 51.2364V51.2319Z" fill="#ED7013"/>
<path d="M88.6252 53.2539C86.3504 53.2539 84.7266 51.4578 84.7266 49.1071C84.7266 46.4923 86.5719 44.9333 88.6252 44.9333C89.7301 44.9333 90.1976 45.2711 90.929 45.2711C91.7141 45.2711 92.1301 44.8931 92.5193 44.1348C92.7318 43.721 92.8593 43.4795 92.8593 43.4795C92.6915 43.3744 90.9961 42.2247 88.1197 42.2247C83.899 42.2247 81.376 45.2442 81.376 49.1071C81.376 53.321 84.2613 55.9671 88.1197 55.9671C90.9133 55.9671 92.6132 54.8219 92.9107 54.6116L91.7476 52.319C91.4904 52.4845 90.296 53.2539 88.6274 53.2539H88.6252Z" fill="#ED7013"/>
<path d="M121.398 47.6353C121.398 46.1322 122.451 44.7388 123.93 44.7388C125.585 44.7388 126.495 46.1747 126.522 47.6353H121.398V47.6353ZM123.983 42.2247C120.774 42.2247 118.067 44.8327 118.067 49.1048C118.067 53.3769 120.689 55.9603 124.614 55.9603C127.732 55.9603 129.347 54.5959 129.542 54.4729C129.542 54.4729 129.24 53.9786 129.155 53.8377C128.714 53.122 128.218 52.8916 127.667 52.8916C126.565 52.8916 126.422 53.3501 124.927 53.3501C122.36 53.3501 121.472 51.346 121.409 50.0129H130V49.0176C130 44.9177 127.638 42.2247 123.983 42.2247" fill="#ED7013"/>
<path d="M100.386 53.3881C102.441 53.3881 103.622 51.6211 103.622 49.1003C103.622 46.5796 102.468 44.8014 100.386 44.8014C98.3035 44.8014 97.1515 46.5505 97.1515 49.1003C97.1515 51.6502 98.3079 53.3881 100.386 53.3881ZM100.386 55.9648C96.2882 55.9648 93.8188 53.2584 93.8188 49.0981C93.8188 44.9378 96.2569 42.2224 100.386 42.2224C104.515 42.2224 106.96 44.9557 106.96 49.0981C106.96 53.0168 104.709 55.9648 100.386 55.9648Z" fill="#ED7013"/>
<path d="M58.1413 42.1375C55.3029 42.1375 53.1735 42.8443 52.8022 42.9628V62.0285V62.2142H53.3256C53.6969 62.2142 54.0548 62.1538 54.3814 62.0308C55.3678 61.6617 56.0813 60.7402 56.1103 59.2707C56.1126 59.1969 56.1171 59.1231 56.1171 59.047V55.4526C56.2088 55.4794 57.2041 55.7546 58.3717 55.7546C61.937 55.7546 65.0259 53.5402 65.0259 48.8454C65.0259 44.8976 62.4917 42.1419 58.1413 42.1419V42.1375ZM57.7141 53.0437C56.8977 53.0437 56.3094 52.8938 56.1103 52.8446L56.1148 45.0295C56.2893 44.9937 56.8641 44.8282 57.7118 44.8282C59.7137 44.8282 61.465 46.1322 61.465 48.9281C61.465 51.724 59.8904 53.0414 57.7118 53.0414L57.7141 53.0437Z" fill="#ED7013"/>
<path d="M115.459 42.2247C113.851 42.2247 112.435 43.5443 111.851 44.1169C111.594 43.5041 111.131 42.4752 109.425 42.4752C108.97 42.4752 108.541 42.5803 108.541 42.5803C108.633 43.0366 108.915 44.032 108.915 45.7788V55.7568H112.285V46.3402C112.69 46.0271 113.558 45.1928 114.884 45.1749C115.772 45.166 116.325 45.5283 116.41 45.5775L117.644 42.7861C117.504 42.6944 116.904 42.2269 115.459 42.2269V42.2247Z" fill="#ED7013"/>
</svg>
