<svg width="32" height="32" viewBox="0 0 32 32" fill="none" xmlns="http://www.w3.org/2000/svg">
<path d="M15.9993 26.6667H6.66602C6.31239 26.6667 5.97326 26.5262 5.72321 26.2762C5.47316 26.0261 5.33268 25.687 5.33268 25.3334V6.66669C5.33268 6.31307 5.47316 5.97393 5.72321 5.72388C5.97326 5.47383 6.31239 5.33335 6.66602 5.33335H13.3327V9.33335C13.3327 10.3942 13.7541 11.4116 14.5043 12.1618C15.2544 12.9119 16.2718 13.3334 17.3327 13.3334H21.3327V14.6667C21.3327 15.0203 21.4732 15.3594 21.7232 15.6095C21.9733 15.8595 22.3124 16 22.666 16C23.0196 16 23.3588 15.8595 23.6088 15.6095C23.8589 15.3594 23.9993 15.0203 23.9993 14.6667V12C23.9993 12 23.9993 12 23.9993 11.92C23.9855 11.7975 23.9586 11.6769 23.9194 11.56V11.44C23.8552 11.3029 23.7697 11.1769 23.666 11.0667V11.0667L15.666 3.06669C15.5558 2.96298 15.4298 2.87746 15.2927 2.81335C15.2529 2.8077 15.2125 2.8077 15.1727 2.81335C15.0372 2.73568 14.8876 2.68581 14.7327 2.66669H6.66602C5.60515 2.66669 4.58773 3.08811 3.83759 3.83826C3.08744 4.58841 2.66602 5.60582 2.66602 6.66669V25.3334C2.66602 26.3942 3.08744 27.4116 3.83759 28.1618C4.58773 28.9119 5.60515 29.3334 6.66602 29.3334H15.9993C16.353 29.3334 16.6921 29.1929 16.9422 28.9428C17.1922 28.6928 17.3327 28.3536 17.3327 28C17.3327 27.6464 17.1922 27.3073 16.9422 27.0572C16.6921 26.8072 16.353 26.6667 15.9993 26.6667ZM15.9993 7.21335L19.4527 10.6667H17.3327C16.9791 10.6667 16.6399 10.5262 16.3899 10.2762C16.1398 10.0261 15.9993 9.68698 15.9993 9.33335V7.21335ZM9.33268 10.6667C8.97906 10.6667 8.63992 10.8072 8.38987 11.0572C8.13983 11.3073 7.99935 11.6464 7.99935 12C7.99935 12.3536 8.13983 12.6928 8.38987 12.9428C8.63992 13.1929 8.97906 13.3334 9.33268 13.3334H10.666C11.0196 13.3334 11.3588 13.1929 11.6088 12.9428C11.8589 12.6928 11.9993 12.3536 11.9993 12C11.9993 11.6464 11.8589 11.3073 11.6088 11.0572C11.3588 10.8072 11.0196 10.6667 10.666 10.6667H9.33268ZM28.946 27.0534L27.386 25.5067C27.8846 24.6364 28.0842 23.6266 27.9542 22.632C27.8241 21.6374 27.3716 20.7129 26.666 20V20C26.0167 19.3276 25.1799 18.8663 24.2647 18.6762C23.3495 18.4861 22.3982 18.5761 21.5349 18.9344C20.6715 19.2927 19.9361 19.9027 19.4244 20.685C18.9127 21.4672 18.6484 22.3854 18.666 23.32C18.6614 24.1243 18.8672 24.9157 19.2628 25.6159C19.6585 26.3161 20.2304 26.9007 20.9217 27.3118C21.613 27.7228 22.3997 27.9459 23.2039 27.9591C24.008 27.9722 24.8016 27.7749 25.506 27.3867L27.0527 28.9467C27.1766 29.0717 27.3241 29.1709 27.4866 29.2385C27.6491 29.3062 27.8233 29.3411 27.9993 29.3411C28.1754 29.3411 28.3496 29.3062 28.5121 29.2385C28.6746 29.1709 28.8221 29.0717 28.946 28.9467C29.071 28.8227 29.1702 28.6753 29.2379 28.5128C29.3056 28.3503 29.3404 28.176 29.3404 28C29.3404 27.824 29.3056 27.6497 29.2379 27.4873C29.1702 27.3248 29.071 27.1773 28.946 27.0534V27.0534ZM24.7194 24.72C24.3385 25.0781 23.8354 25.2775 23.3127 25.2775C22.7899 25.2775 22.2868 25.0781 21.906 24.72C21.539 24.3464 21.3331 23.8438 21.3327 23.32C21.3299 23.057 21.3805 22.7962 21.4813 22.5533C21.5821 22.3104 21.7312 22.0904 21.9194 21.9067C22.2748 21.5531 22.7515 21.3481 23.2527 21.3334C23.5222 21.3168 23.7923 21.3561 24.046 21.4489C24.2996 21.5416 24.5314 21.6858 24.7267 21.8723C24.922 22.0588 25.0766 22.2837 25.1809 22.5329C25.2852 22.782 25.3369 23.05 25.3327 23.32C25.3217 23.8495 25.1011 24.353 24.7194 24.72V24.72ZM17.3327 16H9.33268C8.97906 16 8.63992 16.1405 8.38987 16.3905C8.13983 16.6406 7.99935 16.9797 7.99935 17.3334C7.99935 17.687 8.13983 18.0261 8.38987 18.2762C8.63992 18.5262 8.97906 18.6667 9.33268 18.6667H17.3327C17.6863 18.6667 18.0254 18.5262 18.2755 18.2762C18.5255 18.0261 18.666 17.687 18.666 17.3334C18.666 16.9797 18.5255 16.6406 18.2755 16.3905C18.0254 16.1405 17.6863 16 17.3327 16ZM14.666 24C15.0196 24 15.3588 23.8595 15.6088 23.6095C15.8589 23.3594 15.9993 23.0203 15.9993 22.6667C15.9993 22.3131 15.8589 21.9739 15.6088 21.7239C15.3588 21.4738 15.0196 21.3334 14.666 21.3334H9.33268C8.97906 21.3334 8.63992 21.4738 8.38987 21.7239C8.13983 21.9739 7.99935 22.3131 7.99935 22.6667C7.99935 23.0203 8.13983 23.3594 8.38987 23.6095C8.63992 23.8595 8.97906 24 9.33268 24H14.666Z" fill="#0F172A"/>
</svg>
