<svg width="32" height="32" viewBox="0 0 32 32" fill="none" xmlns="http://www.w3.org/2000/svg">
<path d="M6.07422 30.2934V1.68903H19.2064L25.9252 8.40136V30.2934H6.07422Z" fill="white"/>
<path d="M18.9199 2.37583L25.2379 8.68733V29.6065H6.7606V2.37583H18.9199ZM19.4898 1H5.38477V30.9823H26.6138V8.1175L19.4898 1Z" fill="black"/>
<path d="M6.07422 30.2934V1.68903H19.2064L19.3602 1.84286V8.25186H25.7757L25.9252 8.40136V30.2934H6.07422Z" fill="white"/>
<path d="M18.6729 2.37583V8.94083H25.2379V29.6065H6.7606V2.37583H18.6729ZM19.4898 1H5.38477V30.9823H26.6138V8.1175L26.0613 7.565H20.0488V1.559L19.4898 1Z" fill="black"/>
<path d="M20.5098 7.17068V3.81018L23.8334 7.05368V7.17068H20.5098Z" fill="black"/>
<path d="M21.1964 5.44165L22.2645 6.48165H21.1964V5.44165ZM20.7652 3.09949H19.8184V7.85965H24.52V6.76332L20.7652 3.10165V3.09949Z" fill="black"/>
<path d="M26.6145 11.426V13.8137H5.3855V11.426L3 13.8137V24.6492H29V13.8137L26.6145 11.426Z" fill="#ED1C24"/>
<path d="M7.44141 15.9153H10.0327C11.5191 15.9153 12.7931 16.4678 12.7931 18.2076C12.7931 19.9475 11.4757 20.6278 10.0327 20.6278H9.26791V22.814H7.44141V15.9131V15.9153ZM9.94607 19.1848C10.6676 19.1848 11.0077 18.823 11.0077 18.2076C11.0077 17.5923 10.6264 17.3583 9.94607 17.3583H9.26574V19.1848H9.94607Z" fill="white"/>
<path d="M13.8105 15.9153H15.7952C17.769 15.9153 19.16 16.8925 19.16 19.3343C19.16 21.7761 17.769 22.8161 15.9014 22.8161H13.8105V15.9153ZM15.6999 21.3515C16.5817 21.3515 17.2924 20.9485 17.2924 19.3343C17.2924 17.7201 16.5817 17.38 15.6999 17.38H15.637V21.3493H15.6999V21.3515Z" fill="white"/>
<path d="M20.5002 15.9153H25.2235V17.445H22.3245V18.7623H24.8097V20.292H22.3245V22.8183H20.498V15.9175L20.5002 15.9153Z" fill="white"/>
</svg>
