<svg width="24" height="30" viewBox="0 0 24 30" fill="none" xmlns="http://www.w3.org/2000/svg">
<circle cx="12" cy="12" r="5" fill="white"/>
<path fill-rule="evenodd" clip-rule="evenodd" d="M3.51472 3.51472C5.76516 1.26428 8.8174 0 12 0C15.1826 0 18.2348 1.26428 20.4853 3.51472C22.7357 5.76516 24 8.8174 24 12C24 20.1 13.5 29.25 12.975 29.64C12.7033 29.8724 12.3575 30.0001 12 30.0001C11.6425 30.0001 11.2967 29.8724 11.025 29.64L11.0225 29.6378C10.5374 29.2175 0 20.0856 0 12C0 8.8174 1.26428 5.76516 3.51472 3.51472ZM12.0001 16.9412C14.729 16.9412 16.9413 14.7289 16.9413 12C16.9413 9.27105 14.729 7.05881 12.0001 7.05881C9.27114 7.05881 7.0589 9.27105 7.0589 12C7.0589 14.7289 9.27114 16.9412 12.0001 16.9412Z" fill="#DD052B"/>
</svg>
