<svg width="1654" height="522" viewBox="0 0 1654 522" fill="none" xmlns="http://www.w3.org/2000/svg">
<path fill-rule="evenodd" clip-rule="evenodd" d="M262.22 145.2C251.687 145.2 241.887 143.4 232.82 139.8C223.754 136.067 215.82 130.933 209.02 124.4C202.22 117.733 196.887 110.067 193.02 101.4C189.287 92.6 187.42 83.1333 187.42 73C187.42 62.8666 189.287 53.4667 193.02 44.8C196.887 36 202.22 28.3333 209.02 21.8C215.82 15.1333 223.754 9.99999 232.82 6.39999C241.887 2.66665 251.687 0.799988 262.22 0.799988C272.754 0.799988 282.554 2.66665 291.62 6.39999C300.687 9.99999 308.62 15.1333 315.42 21.8C322.22 28.3333 327.487 36 331.22 44.8C335.087 53.4667 337.02 62.8666 337.02 73C337.02 83.1333 335.087 92.6 331.22 101.4C327.487 110.067 322.22 117.733 315.42 124.4C308.62 130.933 300.687 136.067 291.62 139.8C282.554 143.4 272.754 145.2 262.22 145.2ZM262.22 113.6C267.82 113.6 273.02 112.6 277.82 110.6C282.62 108.467 286.754 105.6 290.22 102C293.82 98.4 296.62 94.1333 298.62 89.2C300.62 84.1333 301.62 78.7333 301.62 73C301.62 67.1333 300.62 61.7333 298.62 56.8C296.62 51.8667 293.82 47.6 290.22 44C286.754 40.4 282.62 37.6 277.82 35.6C273.02 33.4667 267.82 32.4 262.22 32.4C256.62 32.4 251.42 33.4667 246.62 35.6C241.82 37.6 237.62 40.4 234.02 44C230.554 47.6 227.82 51.8667 225.82 56.8C223.82 61.7333 222.82 67.1333 222.82 73C222.82 78.7333 223.82 84.1333 225.82 89.2C227.82 94.1333 230.554 98.4 234.02 102C237.62 105.6 241.82 108.467 246.62 110.6C251.42 112.6 256.62 113.6 262.22 113.6ZM31.8 143L0.599998 2.99998H36L53 89.4L77.4 2.99998H109.6L134 89.4L151 2.99998H185.2L154 143H117.6L93 53.8L68.2 143H31.8ZM349.311 2.99998V143H383.711V92H409.911L436.311 143H474.711L444.111 87C451.978 83.4 458.311 78.1333 463.111 71.2C467.911 64.2667 470.311 56.4 470.311 47.6C470.311 38.9333 468.178 31.2667 463.911 24.6C459.778 17.8 453.978 12.5333 446.511 8.79999C439.044 4.93332 430.511 2.99998 420.911 2.99998H349.311ZM417.711 64H383.711V32.4H417.711C423.044 32.4 427.311 33.8667 430.511 36.8C433.844 39.7333 435.511 43.5333 435.511 48.2C435.511 52.8667 433.844 56.6667 430.511 59.6C427.311 62.5333 423.044 64 417.711 64ZM481.983 143V2.99998H516.383V112.6H590.183V143H481.983ZM659.327 112.6H637.727V33.4H659.327C664.793 33.4 669.86 34.4667 674.527 36.6C679.327 38.6 683.527 41.4 687.127 45C690.727 48.6 693.527 52.8667 695.527 57.8C697.527 62.6 698.527 67.8 698.527 73.4C698.527 78.8667 697.527 84 695.527 88.8C693.527 93.4667 690.727 97.6 687.127 101.2C683.527 104.8 679.327 107.6 674.527 109.6C669.86 111.6 664.793 112.6 659.327 112.6ZM603.327 2.99998V143H660.127C670.527 143 680.193 141.2 689.127 137.6C698.06 134 705.86 129.067 712.527 122.8C719.327 116.4 724.593 109 728.327 100.6C732.193 92.2 734.127 83.1333 734.127 73.4C734.127 63.5333 732.193 54.3333 728.327 45.8C724.593 37.2667 719.327 29.8 712.527 23.4C705.86 17 698.06 12 689.127 8.39998C680.193 4.79998 670.527 2.99998 660.127 2.99998H603.327ZM779.412 143V2.99998H813.813V112.6H887.613V143H779.412ZM900.756 2.99998V143H1011.96V113.2H935.156V86.8H985.356V58H935.156V32.8H1011.16V2.99998H900.756ZM1015.15 143L1072.55 2.99998H1111.95L1168.55 143H1131.35L1118.55 109.2H1063.95L1050.95 143H1015.15ZM1074.35 81.8H1108.35L1091.55 37L1074.35 81.8ZM1228.74 112.6H1207.14V33.4H1228.74C1234.21 33.4 1239.27 34.4667 1243.94 36.6C1248.74 38.6 1252.94 41.4 1256.54 45C1260.14 48.6 1262.94 52.8667 1264.94 57.8C1266.94 62.6 1267.94 67.8 1267.94 73.4C1267.94 78.8667 1266.94 84 1264.94 88.8C1262.94 93.4667 1260.14 97.6 1256.54 101.2C1252.94 104.8 1248.74 107.6 1243.94 109.6C1239.27 111.6 1234.21 112.6 1228.74 112.6ZM1172.74 2.99998V143H1229.54C1239.94 143 1249.61 141.2 1258.54 137.6C1267.47 134 1275.27 129.067 1281.94 122.8C1288.74 116.4 1294.01 109 1297.74 100.6C1301.61 92.2 1303.54 83.1333 1303.54 73.4C1303.54 63.5333 1301.61 54.3333 1297.74 45.8C1294.01 37.2667 1288.74 29.8 1281.94 23.4C1275.27 17 1267.47 12 1258.54 8.39998C1249.61 4.79998 1239.94 2.99998 1229.54 2.99998H1172.74ZM1315.76 143V2.99998H1350.16V143H1315.76ZM1367.38 2.99998V143H1399.78V58.6L1465.38 143H1495.78V2.99998H1463.38V84.2L1399.78 2.99998H1367.38ZM1582.94 145.2C1572.41 145.2 1562.61 143.4 1553.54 139.8C1544.48 136.067 1536.48 130.933 1529.54 124.4C1522.74 117.733 1517.41 110.067 1513.54 101.4C1509.81 92.6 1507.94 83.1333 1507.94 73C1507.94 62.8666 1509.81 53.4667 1513.54 44.8C1517.41 36 1522.68 28.3333 1529.34 21.8C1536.14 15.1333 1544.08 9.99999 1553.14 6.39999C1562.21 2.66665 1571.94 0.799988 1582.34 0.799988C1594.21 0.799988 1605.41 3.26665 1615.94 8.19999C1626.48 13 1635.08 19.6667 1641.74 28.2L1617.54 50C1613.01 44.1333 1607.74 39.7333 1601.74 36.8C1595.88 33.8667 1589.41 32.4 1582.34 32.4C1576.74 32.4 1571.54 33.4667 1566.74 35.6C1562.08 37.6 1557.94 40.4 1554.34 44C1550.88 47.6 1548.14 51.8667 1546.14 56.8C1544.28 61.7333 1543.34 67.1333 1543.34 73C1543.34 78.8667 1544.34 84.3333 1546.34 89.4C1548.34 94.3333 1551.14 98.6667 1554.74 102.4C1558.48 106 1562.74 108.867 1567.54 111C1572.48 113 1577.81 114 1583.54 114C1589.01 114 1593.94 113.067 1598.34 111.2C1602.88 109.333 1606.74 106.733 1609.94 103.4C1613.14 100.067 1615.41 96.2667 1616.74 92H1578.94V62.2H1653.94V72.2C1653.94 82.7333 1652.14 92.4667 1648.54 101.4C1645.08 110.2 1640.14 117.933 1633.74 124.6C1627.48 131.133 1620.01 136.2 1611.34 139.8C1602.68 143.4 1593.21 145.2 1582.94 145.2ZM210.462 333.2C199.929 333.2 190.129 331.4 181.062 327.8C171.996 324.067 164.062 318.933 157.262 312.4C150.462 305.733 145.129 298.067 141.262 289.4C137.529 280.6 135.662 271.133 135.662 261C135.662 250.867 137.529 241.467 141.262 232.8C145.129 224 150.462 216.333 157.262 209.8C164.062 203.133 171.996 198 181.062 194.4C190.129 190.667 199.929 188.8 210.462 188.8C220.996 188.8 230.796 190.667 239.862 194.4C248.929 198 256.863 203.133 263.662 209.8C270.462 216.333 275.729 224 279.462 232.8C283.329 241.467 285.263 250.867 285.263 261C285.263 271.133 283.329 280.6 279.462 289.4C275.729 298.067 270.462 305.733 263.662 312.4C256.863 318.933 248.929 324.067 239.862 327.8C230.796 331.4 220.996 333.2 210.462 333.2ZM210.462 301.6C216.062 301.6 221.262 300.6 226.062 298.6C230.862 296.467 234.996 293.6 238.463 290C242.062 286.4 244.862 282.133 246.862 277.2C248.862 272.133 249.862 266.733 249.862 261C249.862 255.133 248.862 249.733 246.862 244.8C244.862 239.867 242.062 235.6 238.463 232C234.996 228.4 230.862 225.6 226.062 223.6C221.262 221.467 216.062 220.4 210.462 220.4C204.862 220.4 199.662 221.467 194.862 223.6C190.062 225.6 185.862 228.4 182.262 232C178.796 235.6 176.062 239.867 174.062 244.8C172.062 249.733 171.062 255.133 171.062 261C171.062 266.733 172.062 272.133 174.062 277.2C176.062 282.133 178.796 286.4 182.262 290C185.862 293.6 190.062 296.467 194.862 298.6C199.662 300.6 204.862 301.6 210.462 301.6ZM7.6 331V191H81.4C90.6 191 98.7333 193 105.8 197C113 200.867 118.667 206.2 122.8 213C126.933 219.8 129 227.6 129 236.4C129 244.8 126.933 252.4 122.8 259.2C118.667 265.867 113 271.133 105.8 275C98.6 278.867 90.4667 280.8 81.4 280.8H42V331H7.6ZM42 252.4H77.4C82.4667 252.4 86.5333 250.933 89.6 248C92.6667 245.067 94.2 241.267 94.2 236.6C94.2 231.8 92.6667 227.933 89.6 225C86.5333 221.933 82.4667 220.4 77.4 220.4H42V252.4ZM331.953 191H297.553V331H405.753V300.6H331.953V191ZM434.391 331V278.8L376.391 191H415.991L452.591 248.4L489.391 191H526.791L468.791 278.8V331H434.391ZM557.789 327.8C566.856 331.4 576.656 333.2 587.189 333.2C597.722 333.2 607.522 331.4 616.589 327.8C625.656 324.067 633.589 318.933 640.389 312.4C647.189 305.733 652.456 298.067 656.189 289.4C660.056 280.6 661.989 271.133 661.989 261C661.989 250.867 660.056 241.467 656.189 232.8C652.456 224 647.189 216.333 640.389 209.8C633.589 203.133 625.656 198 616.589 194.4C607.522 190.667 597.722 188.8 587.189 188.8C576.656 188.8 566.856 190.667 557.789 194.4C548.722 198 540.789 203.133 533.989 209.8C527.189 216.333 521.856 224 517.989 232.8C514.256 241.467 512.389 250.867 512.389 261C512.389 271.133 514.256 280.6 517.989 289.4C521.856 298.067 527.189 305.733 533.989 312.4C540.789 318.933 548.722 324.067 557.789 327.8ZM602.789 298.6C597.989 300.6 592.789 301.6 587.189 301.6C581.589 301.6 576.389 300.6 571.589 298.6C566.789 296.467 562.589 293.6 558.989 290C555.522 286.4 552.789 282.133 550.789 277.2C548.789 272.133 547.789 266.733 547.789 261C547.789 255.133 548.789 249.733 550.789 244.8C552.789 239.867 555.522 235.6 558.989 232C562.589 228.4 566.789 225.6 571.589 223.6C576.389 221.467 581.589 220.4 587.189 220.4C592.789 220.4 597.989 221.467 602.789 223.6C607.589 225.6 611.722 228.4 615.189 232C618.789 235.6 621.589 239.867 623.589 244.8C625.589 249.733 626.589 255.133 626.589 261C626.589 266.733 625.589 272.133 623.589 277.2C621.589 282.133 618.789 286.4 615.189 290C611.722 293.6 607.589 296.467 602.789 298.6ZM674.28 191H708.68V300.6H782.48V331H674.28V191ZM77.8 521C67.1333 521 57.2 519.2 48 515.6C38.9333 511.867 31 506.733 24.2 500.2C17.4 493.667 12.0667 486.067 8.2 477.4C4.46667 468.6 2.6 459.133 2.6 449C2.6 438.733 4.46667 429.267 8.2 420.6C12.0667 411.8 17.4 404.133 24.2 397.6C31.1333 391.067 39.1333 386 48.2 382.4C57.4 378.667 67.2667 376.8 77.8 376.8C85.5333 376.8 93.1333 377.933 100.6 380.2C108.067 382.467 114.933 385.667 121.2 389.8C127.6 393.8 132.933 398.6 137.2 404.2L114 427C109.067 420.733 103.533 416.067 97.4 413C91.4 409.933 84.8667 408.4 77.8 408.4C72.2 408.4 66.9333 409.467 62 411.6C57.2 413.6 53 416.4 49.4 420C45.8 423.6 43 427.867 41 432.8C39 437.733 38 443.133 38 449C38 454.733 39 460.067 41 465C43.1333 469.8 46 474.067 49.6 477.8C53.3333 481.4 57.6667 484.2 62.6 486.2C67.6667 488.2 73.1333 489.2 79 489.2C85.8 489.2 92.0667 487.733 97.8 484.8C103.667 481.867 108.933 477.533 113.6 471.8L136.2 494C131.933 499.467 126.667 504.267 120.4 508.4C114.133 512.4 107.333 515.533 100 517.8C92.6667 519.933 85.2667 521 77.8 521ZM211.634 521.2C201.101 521.2 191.301 519.4 182.234 515.8C173.168 512.067 165.234 506.933 158.434 500.4C151.634 493.733 146.301 486.067 142.434 477.4C138.701 468.6 136.834 459.133 136.834 449C136.834 438.867 138.701 429.467 142.434 420.8C146.301 412 151.634 404.333 158.434 397.8C165.234 391.133 173.168 386 182.234 382.4C191.301 378.667 201.101 376.8 211.634 376.8C222.168 376.8 231.968 378.667 241.034 382.4C250.101 386 258.034 391.133 264.834 397.8C271.634 404.333 276.901 412 280.634 420.8C284.501 429.467 286.434 438.867 286.434 449C286.434 459.133 284.501 468.6 280.634 477.4C276.901 486.067 271.634 493.733 264.834 500.4C258.034 506.933 250.101 512.067 241.034 515.8C231.968 519.4 222.168 521.2 211.634 521.2ZM211.634 489.6C217.234 489.6 222.434 488.6 227.234 486.6C232.034 484.467 236.168 481.6 239.634 478C243.234 474.4 246.034 470.133 248.034 465.2C250.034 460.133 251.034 454.733 251.034 449C251.034 443.133 250.034 437.733 248.034 432.8C246.034 427.867 243.234 423.6 239.634 420C236.168 416.4 232.034 413.6 227.234 411.6C222.434 409.467 217.234 408.4 211.634 408.4C206.034 408.4 200.834 409.467 196.034 411.6C191.234 413.6 187.034 416.4 183.434 420C179.968 423.6 177.234 427.867 175.234 432.8C173.234 437.733 172.234 443.133 172.234 449C172.234 454.733 173.234 460.133 175.234 465.2C177.234 470.133 179.968 474.4 183.434 478C187.034 481.6 191.234 484.467 196.034 486.6C200.834 488.6 206.034 489.6 211.634 489.6ZM342.125 379H298.725V519H330.325V423.2L376.325 509L422.325 423.6V519H454.725V379H411.325L376.725 445L342.125 379ZM472.022 379H545.822C555.022 379 563.155 381 570.222 385C577.422 388.867 583.089 394.2 587.222 401C591.355 407.8 593.422 415.6 593.422 424.4C593.422 432.8 591.355 440.4 587.222 447.2C583.089 453.867 577.422 459.133 570.222 463C563.022 466.867 554.889 468.8 545.822 468.8H506.422V519H472.022V379ZM506.422 440.4H541.822C546.889 440.4 550.955 438.933 554.022 436C557.089 433.067 558.622 429.267 558.622 424.6C558.622 419.8 557.089 415.933 554.022 413C550.955 409.933 546.889 408.4 541.822 408.4H506.422V440.4ZM667.791 379H628.391L570.991 519H606.791L619.791 485.2H674.391L687.191 519H724.391L667.791 379ZM664.191 457.8H630.191L647.391 413L664.191 457.8ZM728.577 379H760.977L824.577 460.2V379H856.977V519H826.577L760.977 434.6V519H728.577V379ZM918.539 466.8V519H952.939V466.8L1010.94 379H973.539L936.739 436.4L900.139 379H860.539L918.539 466.8Z" fill="#222222"/>
</svg>
